<?xml version="1.0" encoding="UTF-8"?>
<!-- Generator: visioncortex VTracer 0.6.12 -->
<svg version="1.1" xmlns="http://www.w3.org/2000/svg" width="386" height="386">
<path d="M0 0 C127.38000000000001 0 254.76000000000002 0 386 0 C386 127.38000000000001 386 254.76000000000002 386 386 C258.62 386 131.23999999999998 386 0 386 C0 258.62 0 131.23999999999998 0 0 Z " fill="#FCFCFD" transform="translate(0,0)"/>
<path d="M0 0 C0.06628601074220342 0.6525526428222648 0.13257202148435 1.3051052856445295 0.20086669921875 1.9774322509765625 C0.8444218574456954 8.312569755979531 1.488279609220001 14.647676431990831 2.132295608520508 20.98276710510254 C2.5443540546550594 25.036899212925718 2.955774862953888 29.0910954771837 3.3667354583740234 33.145339012145996 C4.654622669048763 45.84896626615429 5.945106382912115 58.55215175353649 7.2890625 71.25 C7.476967905051879 73.03636855203084 7.664796603241598 74.8227451748365 7.8525390625 76.609130859375 C8.109523929484396 79.05407114009097 8.368101131117442 81.4987720663537 8.6326904296875 83.94290161132813 C9.503540715217525 91.98738645738968 10.207114338870497 99.89864297572036 10 108 C4.413604035934554 106.39220799082995 -0.466121513338976 103.79396967614548 -5.5625 101.0625 C-5.981123046874984 100.84110351562501 -5.981123046874984 100.84110351562501 -8.099609375 99.720703125 C-12.130890473739385 97.57898529661193 -16.117818274380852 95.40552364593579 -20 93 C-20.256523437499993 93.696416015625 -20.513046874999986 94.39283203125 -20.77734375 95.1103515625 C-22.13965342106212 98.33005948316519 -23.784662884393356 101.22372457139952 -25.5625 104.234375 C-25.909751281738295 104.82463973999023 -26.25700256347659 105.41490447998046 -26.614776611328125 106.02305603027344 C-27.73996068468631 107.93395894445015 -28.869969777244705 109.84195968113363 -30 111.75 C-30.782730609758573 113.07767971358135 -31.565118094785703 114.40556177337669 -32.34716796875 115.733642578125 C-34.23663011329029 118.94079289611787 -36.129592220710435 122.1458562067973 -38.0242919921875 125.34991455078125 C-40.06082355688261 128.7940300800902 -42.09375240363363 132.2402661188709 -44.125 135.6875 C-44.31276000976561 136.0057373046875 -44.31276000976561 136.0057373046875 -45.262939453125 137.6162109375 C-48.301456824011666 142.77947257211622 -51.28770412268557 147.9721229321688 -54.272216796875 153.166748046875 C-60.81146165975417 164.54728470881116 -67.45581185551075 175.85202252914877 -74.252685546875 187.080078125 C-74.84605712890624 188.06169921875 -75.4394287109375 189.0433203125 -76.05078125 190.0546875 C-76.57325439453126 190.9156201171875 -77.0957275390625 191.776552734375 -77.634033203125 192.66357421875 C-78.84888498742231 194.74152445569823 -79.95461218544665 196.83287758048593 -81 199 C-81.66 199 -82.32 199 -83 199 C-83.53251765549962 197.08654672939122 -84.05059483165397 195.16907049657974 -84.5625 193.25 C-84.8525390625 192.18265625 -85.142578125 191.1153125 -85.44140625 190.015625 C-86.31359732644 185.30701303488343 -84.92983254169243 182.59200403293224 -82.515625 178.5703125 C-81.9995166015625 177.70430419921874 -81.48340820312501 176.8382958984375 -80.95166015625 175.946044921875 C-80.3901123046875 175.01510009765624 -79.82856445312501 174.0841552734375 -79.25 173.125 C-78.05452601412415 171.1237943757563 -76.85921797277794 169.12248961221704 -75.6640625 167.12109375 C-75.05208007812499 166.0999951171875 -74.44009765625 165.078896484375 -73.8095703125 164.02685546875 C-71.59040208339346 160.31486846059255 -69.39423670400058 156.58966712631752 -67.2001953125 152.86279296875 C-61.38808258032074 142.99156988765571 -55.5054486231719 133.16371313564014 -49.60400390625 123.345703125 C-40.963322443811705 108.96023292542645 -32.4212232178503 94.51512656458559 -24 80 C-19.15984683685508 81.7653464442733 -14.716487297992444 84.19536725002922 -10.1875 86.625 C-9.399238281250007 87.045234375 -8.610976562500014 87.46546875 -7.798828125 87.8984375 C-5.864646741176671 88.93000090470578 -3.931760173053476 89.9639117186227 -2 91 C-2.3613738989279227 80.20862770787744 -3.2048731666959043 69.63328377050308 -4.76611328125 58.9482421875 C-5.954078075018515 50.6945572655458 -6.848194592490586 42.41971583933676 -7.6875 34.125 C-7.818823242187477 32.8277197265625 -7.950146484375011 31.530439453125 -8.08544921875 30.19384765625 C-8.39308167115496 27.129498086723686 -8.698165994714316 24.06492536556972 -9 21 C-13.05659849060737 25.623381583759013 -14.367574613849001 29.379718352507496 -14.15625 35.546875 C-13.966292427309781 37.950365954455016 -13.746772840349934 40.35167645784914 -13.5 42.75 C-13.407187499999964 43.968164062499994 -13.314375000000041 45.186328125 -13.21875 46.44140625 C-12.403565783848649 55.6835573006158 -12.403565783848649 55.6835573006158 -9 60 C-8.380899783406448 64.875414205674 -8.263902403151178 66.8602359790728 -10.9375 71 C-15.013779128126885 73.66205983877671 -18.253326282944272 73.77214726561694 -23 73 C-24.673955538697157 72.35185258105324 -26.34166770184254 71.68713623911849 -28 71 C-32.80480576154906 77.96213353928829 -37.09367653369543 85.17140234875379 -41.3125 92.5 C-42.55723565772155 94.65703426924227 -43.80325687353945 96.8133273902954 -45.05078125 98.96875 C-45.32233032226566 99.44022460937501 -45.32233032226566 99.44022460937501 -46.696533203125 101.826171875 C-48 104 -48 104 -49 105 C-49.105631953901025 106.74879568125024 -49.18446364857414 108.49924318333865 -49.25 110.25 C-49.58492359874094 114.34351065127862 -49.80042175129955 115.73029966391834 -52.3125 119.125 C-55 121 -55 121 -56.975830078125 121.3193359375 C-59.96468379699377 122.32439252515002 -60.56352794089071 124.04409003261327 -62.07421875 126.765625 C-62.651396484375 127.78760986328126 -63.22857421875 128.8095947265625 -63.8232421875 129.862548828125 C-64.13084472656249 130.42147827148438 -64.13084472656249 130.42147827148438 -65.6875 133.25 C-66.67504624282083 135.00436282192274 -67.66264082125383 136.75869967372586 -68.65243530273438 138.5117950439453 C-69.34720703490393 139.7434937895298 -70.04039258559646 140.97608844721557 -70.73208618164063 142.2095184326172 C-74.44321188756899 148.82180656045713 -78.27681777962474 155.36079338995447 -82.12222290039063 161.8956298828125 C-83.23363127798288 163.78467826634179 -84.34306601340347 165.67487176598803 -85.451904296875 167.5654296875 C-90.79901802954865 176.67808381385217 -90.79901802954865 176.67808381385217 -92.70654296875 179.7333984375 C-94.20008692444708 182.35062419904997 -94.2735644439642 183.48914507477755 -93.875 186.4375 C-93.76027343749999 187.301171875 -93.64554687500001 188.16484375 -93.52734375 189.0546875 C-92.92564794014885 192.4152700231687 -92.18912699203773 195.7323249060912 -91.4375 199.0625 C-90.9481019338522 201.3728563528805 -90.46788684427756 203.6851914019953 -90 206 C-89.83113281249999 206.781171875 -89.662265625 207.56234375 -89.48828125 208.3671875 C-88.63541584010605 215.77732958596377 -93.69489317348197 221.75035625795698 -97.52294921875 227.67041015625 C-100.37668381202229 232.17129205525896 -103.04892598622288 236.78151754867145 -105.75 241.375 C-106.29229248046875 242.28983154296873 -106.83458496093749 243.2046630859375 -107.393310546875 244.147216796875 C-110.68830912855097 249.7153953115286 -113.8910870894943 255.32579973261335 -117 261 C-117.66 261 -118.32 261 -119 261 C-120.39657950853695 258.9392289918988 -121.65623733836443 256.89264027783827 -122.89453125 254.73828125 C-123.08625160217287 254.4117858886719 -123.08625160217287 254.4117858886719 -124.05647277832031 252.759521484375 C-124.88295699246717 251.35053586001607 -125.70614841847299 249.93961475658693 -126.52642822265625 248.52700805664063 C-128.6841439156595 244.8116020658765 -130.86495638554928 241.1097813217359 -133.04296875 237.40625 C-133.47428100585938 236.67134841918948 -133.90559326171876 235.9364468383789 -134.3499755859375 235.1792755126953 C-137.68775517412806 229.50130769907992 -141.1214966148831 223.88981837523716 -144.625 218.3125 C-150.5901654311498 208.78694879809115 -156.2681504050143 199.10064263518842 -161.91455078125 189.384033203125 C-165.9799719133926 182.3967566639187 -170.1387443288528 175.48886003541463 -174.440185546875 168.64453125 C-176 166 -176 166 -177 163 C-178.03125 163.0825 -179.0625 163.165 -180.125 163.25 C-184.6240984019609 162.95973558697025 -186.5372183188077 161.80320421810805 -190 159 C-191.7286977866031 155.54260442679382 -191.48966895388904 151.78024432402336 -191 148 C-189.20606332128872 145.12970131406198 -188.0173672371264 143.5086836185632 -185 142 C-178.18716237686687 141.31871623768666 -178.18716237686687 141.31871623768666 -175.17578125 143.046875 C-173.01171252967154 144.82843278428976 -171.2619518398141 146.47609632037182 -170 149 C-169.93651965372962 150.4786761000188 -169.88804624167278 151.9580131255391 -169.84765625 153.4375 C-169.24068462157834 160.04173141687747 -166.0716860469622 164.60041904508248 -162.4375 170 C-161.22446411425727 171.85194379205538 -160.01464918028057 173.70600271529344 -158.80859375 175.5625 C-158.27032958984375 176.3681640625 -157.7320654296875 177.173828125 -157.177490234375 178.00390625 C-156 180 -156 180 -156 182 C-155.34 182 -154.68 182 -154 182 C-153.938125 181.4740625 -153.938125 181.4740625 -153.625 178.8125 C-153 175 -153 175 -151.875 172.375 C-150.77267512618027 169.38297534248932 -151.1510248899113 168.05786712867572 -152 165 C-153.35107421875006 162.40039062499991 -153.35107421875006 162.40039062499991 -155.0546875 159.65625 C-155.36212890625 159.15673828125 -155.36212890625 159.15673828125 -156.91796875 156.62890625 C-157.5637890625 155.5963671875 -158.209609375 154.563828125 -158.875 153.5 C-159.5130859375 152.4674609375 -160.151171875 151.434921875 -160.80859375 150.37109375 C-161.99897174522079 148.4451168266261 -163.1924747916757 146.52106527855628 -164.39013671875 144.599609375 C-165.47550560248206 142.84695425307416 -166.52012509149677 141.0684873501415 -167.525146484375 139.2685546875 C-170.65510298492538 134.45419352161454 -176.5231712726748 133.83446356496813 -181.80078125 132.703125 C-201.05789737981732 128.54518814068632 -201.05789737981732 128.54518814068632 -205.709228515625 122.166015625 C-207.24946010937947 119.57839928072386 -208.6198378431448 116.94579892675273 -209.90576171875 114.22314453125 C-211.94856026811516 110.07282690730548 -214.46147185067207 106.19195615098798 -216.875 102.25 C-217.90020439274016 100.52969757408378 -218.92363744414277 98.80833831390659 -219.9453125 97.0859375 C-222.80366931462095 92.2990507863577 -225.75663975703486 87.57834694273289 -228.75 82.875 C-234.3621651423345 74.05574903080958 -239.84613026381402 65.15981241834382 -245.3056640625 56.24560546875 C-245.943427734375 55.2054931640625 -246.58119140625 54.165380859375006 -247.23828125 53.09375 C-247.8578369140625 52.083124999999995 -248.477392578125 51.07249999999999 -249.11572265625 50.03125 C-251.59867605814816 46.03690568308275 -254.1599529988194 42.094971020542545 -256.739013671875 38.162109375 C-258 36 -258 36 -258 34 C-245.13 34 -232.26 34 -219 34 C-216.71525808504626 38.3271627177154 -214.43133486901624 42.65410469848379 -212.16015625 46.98828125 C-210.17472017135424 50.77376050689453 -208.17566991674957 54.55159334766674 -206.16485595703125 58.32365417480469 C-204.86225269778032 60.7719398211069 -203.5682459078025 63.224708957129224 -202.27569580078125 65.67831420898438 C-201.63355359509262 66.8927934778574 -200.98783658659886 68.10538932970132 -200.33856201171875 69.31607055664063 C-199.42084415867754 71.02868409403173 -198.5167686465932 72.74858671983061 -197.61328125 74.46875 C-197.08516845703124 75.46326171875 -196.5570556640625 76.4577734375 -196.012939453125 77.482421875 C-195 80 -195 80 -196 83 C-201.37142857142857 87 -201.37142857142857 87 -204 87 C-204.13257202148438 86.75467529296876 -204.13257202148438 86.75467529296876 -204.803466796875 85.51318359375 C-207.08798031624616 81.29659375680288 -209.39861056192072 77.09641441157589 -211.73828125 72.91015625 C-213.96705113691178 68.91579842861434 -216.09095310859863 64.88370228831947 -218.16796875 60.80859375 C-225.83318831250358 46.236948128888685 -225.83318831250358 46.236948128888685 -229.84326171875 43.94775390625 C-233.65518786883578 42.8209831449541 -237.17745726522216 43.11161854609091 -241 44 C-240.71447265625 44.455683593749995 -240.71447265625 44.455683593749995 -239.26953125 46.76171875 C-231.57255290319182 59.05588500342226 -223.9417516293375 71.39067035278539 -216.3134765625 83.7275390625 C-215.758857421875 84.624404296875 -215.20423828125 85.52126953125 -214.6328125 86.4453125 C-214.0835107421875 87.33565185546875 -213.534208984375 88.2259912109375 -212.96826171875 89.143310546875 C-211.86886395274325 90.91560718145944 -210.76115917443963 92.68277898101998 -209.64501953125 94.444580078125 C-207.13013953583877 98.43093241127687 -204.7612781741774 102.37076020551429 -202.734375 106.62890625 C-198.81217135279923 114.5212210307053 -195.4677122272465 118.48470044076714 -186.945068359375 121.43603515625 C-181.4575208997256 123.06915257149839 -175.90336850368294 124.42235826493163 -170.2880859375 125.53955078125 C-165.61645707496535 126.63378262568466 -162.73802611113388 127.66604646542652 -159.890625 131.640625 C-158.98006322071728 133.15929157507446 -158.10136413887113 134.69737318611874 -157.25 136.25 C-157.00370849609374 136.66850219726564 -157.00370849609374 136.66850219726564 -155.75732421875 138.786376953125 C-154.69961993882714 140.58420972026488 -153.6535390308734 142.38892275993695 -152.6181640625 144.19970703125 C-150.44518099429405 147.96013488163052 -148.16080046953542 151.64735021928198 -145.87841796875 155.342041015625 C-140.17672430293783 164.5947895083904 -134.629952688007 173.94169393495105 -129.125 183.3125 C-128.81828369140624 183.83179077148438 -128.81828369140624 183.83179077148438 -127.26611328125 186.459716796875 C-126.70649902343749 187.41789306640624 -126.146884765625 188.3760693359375 -125.5703125 189.36328125 C-125.07289550781249 190.21188720703125 -124.57547851562501 191.0604931640625 -124.06298828125 191.934814453125 C-123 194 -123 194 -123 196 C-122.13374999999999 195.9175 -121.26750000000001 195.835 -120.375 195.75 C-116.20305081462297 196.0590332729909 -114.24569039564975 197.43364015227695 -111 200 C-109.39913373070766 203.20173253858465 -109.5008291076129 206.52577058898575 -110 210 C-111.7936391088165 212.81003460381254 -113.01880935346989 214.50940467673493 -116 216 C-123.08958837772397 216.58111380145277 -123.08958837772397 216.58111380145277 -126.9375 214.125 C-129 212 -129 212 -130 210 C-129.89029719435482 208.49880371222363 -129.76255733267328 206.99890059050887 -129.625 205.5 C-129.55975670859215 199.82383364751627 -131.63137702905738 196.91646124581231 -135.04296875 192.5390625 C-138.08206053238018 188.59612904980614 -140.50306881240465 184.29874600062206 -143 180 C-143.7060308319213 181.53326867361451 -144.3890272436333 183.07715413960466 -145.0625 184.625 C-145.44535156249998 185.483515625 -145.82820312500002 186.34203125 -146.22265625 187.2265625 C-147.37008506250535 191.32040399185325 -146.92121932538942 194.14277378041632 -145.026611328125 197.96240234375 C-143.69838727337554 200.30464120633115 -142.3005380833319 202.59068211407376 -140.875 204.875 C-140.354541015625 205.725458984375 -139.83408203125 206.57591796875 -139.2978515625 207.4521484375 C-137.54383115055492 210.30898989437475 -135.77348689127075 213.15520490836852 -134 216 C-133.328076171875 217.081201171875 -132.65615234375 218.16240234375 -131.9638671875 219.2763671875 C-127.66134645215496 226.19607100638518 -123.3394095922645 233.10337454924877 -119 240 C-116.9915362363603 237.00558774011643 -114.99370791867008 234.00425569465983 -113 231 C-112.46004394531249 230.1893408203125 -111.92008789062501 229.378681640625 -111.36376953125 228.54345703125 C-109.7340320015139 226.06746210057116 -108.14586034006663 223.5683566948668 -106.5625 221.0625 C-106.00884765625 220.23298828125 -105.4551953125 219.4034765625 -104.884765625 218.548828125 C-100.97461224397367 212.28186996636876 -100.4313004441457 208.16706563036408 -102 201 C-102.12721435546874 200.30849853515625 -102.2544287109375 199.6169970703125 -102.385498046875 198.904541015625 C-102.97914980744355 195.76003569937296 -103.69549050304275 192.6416798042638 -104.37890625 189.515625 C-105.6112476637876 182.54010756346645 -104.75163708168299 178.6691460368127 -101.125 172.625 C-100.71789794921875 171.92439453125 -100.3107958984375 171.2237890625 -99.891357421875 170.501953125 C-96.74223184372235 165.12648298815722 -93.43767191653234 159.84884650507323 -90.099853515625 154.589111328125 C-84.29354459841954 145.38975108744606 -78.9100527524842 135.93381803452033 -73.467041015625 126.516845703125 C-72.45115559162531 124.77399949976126 -71.40005658973132 123.051384212073 -70.32177734375 121.346435546875 C-68.69647037408177 118.46117044057996 -68.80996750298047 116.76914796141642 -69.0625 113.5 C-69.151526543606 109.82518211670788 -69.14046879542786 108.27531883903862 -67.4375 104.9375 C-65 103 -65 103 -61.78125 102.5859375 C-57.8830176723352 101.53182624566335 -56.60353968959055 99.38061633174152 -54.53515625 96.01171875 C-53.356574738010295 93.91533045886477 -52.19997166914163 91.80647533008599 -51.0625 89.6875 C-49.83378410040365 87.49974677293724 -48.60462070944777 85.31224480919299 -47.375 83.125 C-46.24863484950839 81.08408615430837 -45.12350553638913 79.04248943387249 -44 77 C-42.54744021791237 74.37756422575201 -41.07038703425849 71.77918084013172 -39.5625 69.1875 C-39.02753906250001 68.2323046875 -38.49257812500002 67.277109375 -37.94140625 66.29296875 C-35.37478508086201 63.26156708745671 -32.66786143486735 62.41544988258303 -29 61 C-26.083042284431144 59.104833734698886 -24.432696629121608 57.18263322612013 -23 54 C-22.24278985590354 47.25791737083344 -22.517504577306227 40.63648341565245 -24 34 C-24.971427774787117 26.922454783693908 -21.817115270193995 22.646149670495312 -18 17 C-18.939726562500027 17.4266796875 -19.879453124999998 17.853359374999997 -20.84765625 18.29296875 C-31.709501464495588 23.1873714652006 -42.67269576168633 27.825166660806268 -53.66583251953125 32.41448974609375 C-63.48720611392474 36.51512825920119 -73.2697758368686 40.686601659642776 -83 45 C-76.72999999999999 48.3 -70.46000000000001 51.599999999999994 -64 55 C-66.46398688866606 61.15996722166514 -69.7401591758817 66.5351933540785 -73.1875 72.1875 C-73.83525390624999 73.29287109375 -74.4830078125 74.3982421875 -75.150390625 75.537109375 C-80.63094768647196 84.48886841147016 -80.63094768647196 84.48886841147016 -84.7734375 85.69921875 C-85.3058203125 85.74884765625 -85.3058203125 85.74884765625 -88 86 C-88.56718749999999 86.103125 -88.56718749999999 86.103125 -91.4375 86.625 C-92.28312500000001 86.74875 -93.12875 86.8725 -94 87 C-92.27087041441789 81.91492660334727 -89.39471260418145 77.58591647995081 -86.5625 73.0625 C-83.48326165301702 68.13005381738208 -80.4902371738826 63.259043251962254 -78 58 C-78.8786572265625 57.723657226562494 -79.75731445312499 57.447314453125 -80.66259765625 57.16259765625 C-83.72977696369512 56.094133291798386 -86.50416369252395 54.862599543782 -89.3984375 53.3984375 C-90.3716796875 52.908593749999994 -91.34492187500001 52.41875 -92.34765625 51.9140625 C-92.84716796875 51.66011718749999 -92.84716796875 51.66011718749999 -95.375 50.375 C-96.39722656250001 49.859375 -97.41945312499999 49.34375 -98.47265625 48.8125 C-100.98362669162535 47.54528127245075 -103.49264561423658 46.27435443661105 -106 45 C-106 44.34 -106 43.68000000000001 -106 43 C-93.78338802935343 37.82697543032467 -81.56410389949696 32.660271539058 -69.34375 27.49609375 C-68.87659072875977 27.298675842285157 -68.87659072875977 27.298675842285157 -66.51248168945313 26.29962158203125 C-61.66124549824474 24.249902236036526 -56.80941079892028 22.201615260634256 -51.95654296875 20.15576171875 C-50.020504239613274 19.339526703692556 -48.08446905930418 18.523283271070383 -46.1484375 17.70703125 C-45.20048309326171 17.307401733398436 -44.25252868652342 16.90777221679687 -43.275848388671875 16.49603271484375 C-38.05871352580135 14.295213188103077 -32.84566536057548 12.08520989503073 -27.637954711914063 9.8621826171875 C-24.73948612546883 8.625583156464003 -21.83886112838445 7.39410038900094 -18.937835693359375 6.16351318359375 C-17.61644620058729 5.601347601714451 -16.296128504998705 5.0366552479354 -14.976959228515625 4.46929931640625 C-13.183999232247515 3.698377187045999 -11.387026187433207 2.936808032929836 -9.58984375 2.17578125 C-9.094158935546886 1.9639318847656249 -9.094158935546886 1.9639318847656249 -6.585693359375 0.891845703125 C-4 0 -4 0 0 0 Z " fill="#3CABC7" transform="translate(317,25)"/>
<path d="M0 0 C12.870000000000005 0 25.74000000000001 0 39 0 C41.28474191495373 4.327162717715396 43.56866513098376 8.654104698483792 45.83984375 12.98828125 C47.82527982864575 16.77376050689452 49.82433008325043 20.55159334766674 51.83514404296875 24.323654174804688 C53.137747302219694 26.771939821106898 54.43175409219751 29.22470895712921 55.72430419921875 31.678314208984375 C56.366446404907364 32.892793477857396 57.01216341340114 34.105389329701325 57.66143798828125 35.316070556640625 C58.57915584132246 37.02868409403173 59.48323135340681 38.74858671983063 60.38671875 40.46875 C60.914831542968756 41.463261718750005 61.4429443359375 42.45777343750001 61.987060546875 43.482421875 C63 46 63 46 62 49 C56.62857142857145 53 56.62857142857145 53 54 53 C53.73485595703124 52.5093505859375 53.4697119140625 52.018701171874994 53.196533203125 51.51318359375 C50.91201968375384 47.29659375680285 48.60138943807931 43.09641441157592 46.26171875 38.91015625 C44.03294886308821 34.91579842861432 41.909046891401374 30.883702288319483 39.83203125 26.80859375 C32.16681168749642 12.236948128888685 32.16681168749642 12.236948128888685 28.15673828125 9.94775390625 C24.34481213116422 8.820983144954099 20.82254273477784 9.11161854609091 17 10 C17.571054687499995 10.911367187500005 18.142109375000004 11.822734374999996 18.73046875 12.76171875 C26.42744709680818 25.05588500342226 34.05824837066251 37.39067035278539 41.6865234375 49.7275390625 C42.24114257812499 50.624404296875 42.79576171875 51.52126953125 43.3671875 52.4453125 C43.9164892578125 53.33565185546874 44.465791015625 54.22599121093751 45.03173828125 55.143310546875 C46.131136047256746 56.915607181459436 47.238840825560374 58.682778981019965 48.35498046875 60.444580078125 C50.86986046416125 64.43093241127687 53.23872182582258 68.37076020551427 55.265625 72.62890625 C59.187828647200774 80.5212210307053 62.532287772753506 84.48470044076714 71.054931640625 87.43603515625 C76.54247910027442 89.06915257149839 82.09663149631706 90.42235826493163 87.7119140625 91.53955078125 C92.38354292503465 92.63378262568466 95.26197388886612 93.66604646542652 98.109375 97.640625 C99.01993677928272 99.15929157507446 99.89863586112887 100.69737318611874 100.75 102.25 C100.99629150390626 102.66850219726564 100.99629150390626 102.66850219726564 102.24267578125 104.786376953125 C103.30038006117286 106.58420972026488 104.34646096912661 108.38892275993695 105.3818359375 110.19970703125 C107.55481900570595 113.96013488163055 109.83919953046461 117.647350219282 112.12158203125 121.342041015625 C117.8232756970622 130.59478950839042 123.370047311993 139.94169393495105 128.875 149.3125 C129.18171630859376 149.83179077148438 129.18171630859376 149.83179077148438 130.73388671875 152.459716796875 C131.2935009765625 153.41789306640624 131.853115234375 154.3760693359375 132.4296875 155.36328125 C132.9271044921875 156.21188720703125 133.424521484375 157.0604931640625 133.93701171875 157.934814453125 C135 160 135 160 135 162 C135.86625 161.9175 136.7325 161.835 137.625 161.75 C141.79694918537703 162.0590332729909 143.75430960435025 163.43364015227695 147 166 C148.60086626929234 169.2017325385847 148.4991708923871 172.52577058898572 148 176 C146.20636089118344 178.8100346038126 144.98119064653014 180.50940467673493 142 182 C134.910411622276 182.58111380145277 134.910411622276 182.58111380145277 131.0625 180.125 C129 178 129 178 128 176 C128.10970280564518 174.49880371222363 128.23744266732672 172.99890059050887 128.375 171.5 C128.44024329140785 165.82383364751624 126.36862297094262 162.91646124581231 122.95703125 158.5390625 C119.91793946761982 154.5961290498061 117.49693118759535 150.29874600062206 115 146 C114.29396916807869 147.53326867361451 113.61097275636669 149.07715413960466 112.9375 150.625 C112.55464843750002 151.483515625 112.17179687499998 152.34203125 111.77734375 153.2265625 C110.62991493749462 157.3204039918533 111.07878067461058 160.14277378041632 112.973388671875 163.96240234375 C114.3016127266244 166.3046412063311 115.69946191666813 168.59068211407381 117.125 170.875 C117.64545898437501 171.725458984375 118.16591796875 172.57591796875 118.7021484375 173.4521484375 C120.45616884944505 176.30898989437472 122.22651310872925 179.1552049083685 124 182 C124.67192382812499 183.081201171875 125.34384765625 184.16240234375 126.0361328125 185.2763671875 C130.338653547845 192.19607100638513 134.66059040773553 199.10337454924877 139 206 C141.00846376363967 203.00558774011643 143.00629208132992 200.00425569465983 145 197 C145.5399560546875 196.1893408203125 146.079912109375 195.378681640625 146.63623046875 194.54345703125 C148.26596799848613 192.0674621005711 149.85413965993334 189.56835669486682 151.4375 187.0625 C151.99115234375 186.23298828125 152.5448046875 185.4034765625 153.115234375 184.548828125 C157.02538775602633 178.28186996636876 157.5686995558543 174.16706563036408 156 167 C155.87278564453126 166.30849853515625 155.7455712890625 165.6169970703125 155.614501953125 164.904541015625 C155.02085019255645 161.7600356993729 154.30450949695725 158.6416798042638 153.62109375 155.515625 C152.33020727557863 148.2087204278035 153.3406060276377 144.5131678917691 157.0625 138.3125 C157.26556762695313 137.96409057617188 157.26556762695313 137.96409057617188 158.293212890625 136.200927734375 C159.51237518026687 134.12359751520273 160.75170847675022 132.05993370395387 162 130 C162.356748046875 129.40767578125 162.71349609375 128.8153515625 163.0810546875 128.205078125 C168.51132762991134 119.24433618504435 168.51132762991134 119.24433618504435 171 118 C173.47501709601116 119.11431765182402 175.67883418963817 120.58150978255665 178 122 C176.97316674642508 126.0026875871838 175.36472012701185 129.1695866232618 173.14453125 132.609375 C172.60505859375 133.447265625 172.0655859375 134.28515625 171.509765625 135.1484375 C170.3818623172965 136.87728353666404 169.23863903455282 138.59623465930656 168.080078125 140.3046875 C164.6283091023527 145.73779686416688 163.35553309459638 149.28950713701911 164.474853515625 155.69189453125 C164.64815185546874 156.4535693359375 164.8214501953125 157.215244140625 165 158 C165.2487890625 159.2284765625 165.497578125 160.456953125 165.75390625 161.72265625 C166.0207421875 162.8248046875 166.287578125 163.926953125 166.5625 165.0625 C167.0518980661478 167.3728563528805 167.53211315572244 169.6851914019953 168 172 C168.1688671875 172.781171875 168.337734375 173.56234375 168.51171875 174.3671875 C169.36458415989392 181.7773295859637 164.30510682651803 187.75035625795698 160.47705078125 193.67041015625 C157.6233161879777 198.17129205525896 154.95107401377714 202.7815175486714 152.25 207.375 C151.70770751953125 208.28983154296873 151.1654150390625 209.2046630859375 150.606689453125 210.147216796875 C147.31169087144903 215.7153953115286 144.10891291050572 221.3257997326133 141 227 C140.34 227 139.68 227 139 227 C137.60342049146297 224.9392289918987 136.3437626616356 222.89264027783832 135.10546875 220.73828125 C134.91374839782713 220.4117858886719 134.91374839782713 220.4117858886719 133.9435272216797 218.759521484375 C133.11704300753283 217.35053586001607 132.293851581527 215.93961475658693 131.47357177734375 214.52700805664063 C129.3158560843405 210.81160206587657 127.1350436144507 207.1097813217359 124.95703125 203.40625 C124.52571899414062 202.67134841918948 124.09440673828124 201.9364468383789 123.6500244140625 201.1792755126953 C120.31224482587194 195.50130769907992 116.87850338511689 189.88981837523716 113.375 184.3125 C107.40983456885016 174.78694879809112 101.73184959498573 165.10064263518845 96.08544921875 155.384033203125 C92.0200280866074 148.3967566639187 87.86125567114723 141.48886003541463 83.559814453125 134.64453125 C82 132 82 132 81 129 C79.96875 129.0825 78.9375 129.165 77.875 129.25 C73.37590159803904 128.95973558697025 71.46278168119233 127.80320421810808 68 125 C66.27130221339691 121.54260442679382 66.51033104611096 117.78024432402336 67 114 C68.79393667871125 111.129701314062 69.98263276287364 109.50868361856317 73 108 C79.81283762313313 107.31871623768669 79.81283762313313 107.31871623768669 82.82421875 109.046875 C84.98828747032849 110.82843278428979 86.73804816018588 112.4760963203718 88 115 C88.06348034627038 116.47867610001879 88.11195375832722 117.95801312553914 88.15234375 119.4375 C88.75931537842166 126.0417314168775 91.92831395303779 130.60041904508248 95.5625 136 C96.77553588574273 137.85194379205538 97.98535081971943 139.70600271529344 99.19140625 141.5625 C99.72967041015625 142.3681640625 100.26793457031249 143.173828125 100.822509765625 144.00390625 C102 146 102 146 102 148 C102.66 148 103.32 148 104 148 C104.06187499999999 147.4740625 104.06187499999999 147.4740625 104.375 144.8125 C105 141 105 141 106.125 138.375 C107.22732487381973 135.38297534248932 106.8489751100887 134.05786712867572 106 131 C104.64892578124994 128.40039062499991 104.64892578124994 128.40039062499991 102.9453125 125.65625 C102.63787109375 125.15673828125 102.63787109375 125.15673828125 101.08203125 122.62890625 C100.4362109375 121.5963671875 99.79039062499999 120.56382812499999 99.125 119.5 C98.4869140625 118.4674609375 97.84882812500001 117.43492187499999 97.19140625 116.37109375 C96.00102825477921 114.44511682662608 94.80752520832431 112.52106527855628 93.60986328125 110.599609375 C92.52449439751794 108.84695425307416 91.47987490850323 107.06848735014151 90.474853515625 105.2685546875 C87.34489701507465 100.45419352161457 81.4768287273252 99.83446356496813 76.19921875 98.703125 C56.94210262018271 94.54518814068638 56.94210262018271 94.54518814068638 52.290771484375 88.166015625 C50.750539890620544 85.57839928072389 49.38016215685519 82.94579892675276 48.09423828125 80.22314453125 C46.05143973188481 76.07282690730545 43.538528149327945 72.19195615098798 41.125 68.25 C40.099795607259836 66.52969757408378 39.07636255585723 64.80833831390659 38.0546875 63.0859375 C35.19633068537905 58.29905078635768 32.24336024296515 53.57834694273291 29.25 48.875 C23.63783485766551 40.055749030809594 18.153869736185968 31.15981241834382 12.6943359375 22.24560546875 C12.056572265624993 21.205493164062503 11.41880859375 20.165380859375006 10.76171875 19.09375 C10.142163085937497 18.083124999999995 9.522607421874994 17.07249999999999 8.88427734375 16.03125 C6.401323941851857 12.036905683082736 3.840047001180622 8.094971020542545 1.260986328125 4.162109375 C0 2 0 2 0 0 Z " fill="#1B3C5C" transform="translate(59,59)"/>
<path d="M0 0 C3.123328766564157 1.4932249083175293 5.0439070402949255 3.1407935155837947 7 6 C7.310791015625 8.589111328125 7.310791015625 8.589111328125 7.31640625 11.51953125 C7.747427140587888 18.638918810285574 10.383681441132893 23.443919201845716 14.0625 29.4375 C14.360313720703118 29.94253051757812 14.360313720703118 29.94253051757812 15.867431640625 32.498291015625 C17.55498487177067 35.347112022626334 19.270228061420795 38.17666945504968 21 41 C21.386396484374984 41.63550781250001 21.772792968749997 42.27101562499999 22.1708984375 42.92578125 C23.690349977442423 45.42126409881651 25.229514134166408 47.903361531837504 26.78125 50.37890625 C29.94217626020938 55.47907893709069 32.92284090836219 60.68765659136267 35.9375 65.875 C44.3890852028502 80.4062847048873 53.045220128199105 94.77330379448756 62 109 C65.03052347791177 106.17002586989122 67.18930619066543 103.34439867296987 69.3125 99.7890625 C69.913203125 98.791328125 70.51390624999999 97.79359375000001 71.1328125 96.765625 C71.74898437500002 95.72921875 72.36515624999998 94.6928125 73 93.625 C74.22803807400109 91.5748443869187 75.45717390952672 89.52534586095982 76.6875 87.4765625 C77.25976318359375 86.51709716796876 77.8320263671875 85.55763183593751 78.421630859375 84.569091796875 C79.69465521072874 82.49700591144648 81.01914355479238 80.52776036008638 82.44140625 78.55859375 C84.14439727013169 75.76295686231515 84.34182700268656 74.62086330284217 83.9375 71.4375 C83.72870730753226 67.5683104177071 83.80369640499657 67.2416044246196 86.4375 64 C87.28312499999998 63.34 88.12875 62.68000000000001 89 62 C89.32999999999998 61.670000000000016 89.66 61.34 90 61 C96.7935553168636 60.309129967776585 96.7935553168636 60.309129967776585 99.828125 62.046875 C103.08789839827824 64.73697926071503 104.80352750755472 66.55920172206794 105.375 70.75 C104.96834008390655 74.27438593947659 103.98644617836376 76.09558036201554 101.614013671875 78.7216796875 C100 80 100 80 96.17578125 81.140625 C90.82739119103184 83.04779811648294 88.90298263252222 86.80070386050215 86.1875 91.5625 C85.93572998046875 91.98200927734376 85.93572998046875 91.98200927734376 84.66162109375 94.10498046875 C83.61307784558997 95.85473496809917 82.57376463075869 97.61005157816635 81.54345703125 99.37060546875 C79.12583821662199 103.48920000110428 76.62118796043836 107.55374411071557 74.125 111.625 C73.6704443359375 112.37257568359377 73.215888671875 113.1201513671875 72.74755859375 113.890380859375 C69.62826842584747 119.01641052761082 66.418617107812 124.06680569252447 63 129 C60.65029119289568 126.82350416466073 59.061389116639134 124.64736267533533 57.4609375 121.87890625 C56.971093749999994 121.0392431640625 56.48124999999999 120.199580078125 55.9765625 119.33447265625 C55.712304687499994 118.87709716796874 55.712304687499994 118.87709716796874 54.375 116.5625 C49.00198802968174 107.36339356817905 43.535303788714515 98.2269338383905 38 89.125 C37.81875579833985 88.8265870666504 37.81875579833985 88.8265870666504 36.90155029296875 87.31643676757813 C35.19861745086496 84.51278540635539 33.49099991742696 81.71245239557976 31.770263671875 78.919677734375 C30.688389213841504 77.13535327655916 29.634140090459 75.33341902419576 28.630126953125 73.504150390625 C25.886470966712892 68.60917444568014 23.774673328043605 66.83223569855306 18.1875 65.1875 C17.56617187500001 64.99671875000001 17.56617187500001 64.99671875000001 14.421875 64.03125 C13.292656249999993 63.69093749999999 12.163437499999986 63.35062500000001 11 63 C9.639536740624578 62.41014879663442 8.28384938758174 61.80889202503772 6.9375 61.1875 C2.428087205974748 59.41106465689916 -2.1927418115427315 59.960462614680154 -6.94921875 60.28515625 C-10.780734365721216 59.92702482881222 -12.285558260289093 58.65575110750095 -15 56 C-16.60086626929231 52.79826746141538 -16.4991708923871 49.47422941101419 -16 46 C-14.206360891183536 43.189965396187546 -12.981190646530052 41.490595323265026 -10 40 C-5.502036343895469 39.4810041935264 -3.5043410650197586 39.6824519220246 0.375 42.125 C3.2303417639778047 45.25227907483281 3.8064136860309077 46.83789424966477 4 51 C4.824999999999989 51.103125000000006 5.650000000000006 51.20625000000001 6.5 51.3125 C9.302029894989062 51.86289872937286 11.582431394225665 52.52711457649397 14.21875 53.54296875 C14.574208984374991 53.67908569335938 14.574208984374991 53.67908569335938 16.373046875 54.367919921875 C16.90994140625 54.57650634765625 17.446835937499998 54.7850927734375 18 55 C14.512337843150561 49.161395204089075 14.512337843150561 49.161395204089075 12.97705078125 46.626220703125 C10.662947049245531 42.80185511603497 8.399985903579505 38.957252653674914 6.19921875 35.06640625 C5.25794513318445 33.440027397432004 4.316541274912737 31.813723914911193 3.375 30.1875 C3.1598474121093716 29.796350097656244 3.1598474121093716 29.796350097656244 2.071044921875 27.81689453125 C-0.24740957295659882 23.865707172043102 -1.2145992636530423 22.289800271700216 -5.65234375 20.65234375 C-6.757070312499991 20.437070312499998 -7.86179687500001 20.221796874999995 -9 20 C-12.372446853643496 16.986324088233474 -14.309453683375708 14.509121123095767 -14.75 10 C-14.517238931744316 6.541835557344058 -13.424123295696916 4.879973538093665 -10.9375 2.5 C-7.20376709393895 -0.2345649452841343 -4.644989922162722 -0.9953549833205813 0 0 Z " fill="#2B6D8D" transform="translate(136,77)"/>
<path d="M0 0 C5.277860719476905 4.0484089711794695 9.260219140448044 8.475821776680107 11 15 C11.887650509997911 22.921438095550798 11.24882086000332 30.1209567028518 7 37 C1.129655974239654 43.74898553937737 -6.034427469470245 47.42996312624405 -14.95703125 48.16015625 C-23.825518404443756 48.51738077636111 -31.412019377164142 46.23993377469458 -38.3125 40.60546875 C-44.13310655862321 35.06780834353208 -46.080117641892684 28.949211901780984 -46.375 21.125 C-46.214613808014576 13.492504157870599 -43.88833085941661 8.833413945358245 -38.8125 3.25 C-28.288946012998792 -6.431669668041138 -12.32594918464713 -7.040582174270469 0 0 Z " fill="#142C49" transform="translate(278,308)"/>
<path d="M0 0 C0.375 2.437499999999986 0.375 2.437499999999986 0 6 C-0.9798673582756123 7.3149052043419545 -2.0024371237113314 8.598387161400566 -3.05078125 9.859375 C-7.268803177824566 15.987244334161936 -6.350189869589201 21.692552056834998 -5.5625 28.8125 C-5.465175781249968 30.02615234375 -5.367851562499993 31.239804687499998 -5.267578125 32.490234375 C-4.421067687250456 41.649781446936885 -4.421067687250456 41.649781446936885 -1 46 C-0.3808997834064485 50.87541420567399 -0.2639024031511781 52.860235979072826 -2.9375 57 C-7.013779128126885 59.66205983877674 -10.253326282944329 59.77214726561692 -15 59 C-16.673955538697157 58.35185258105324 -18.341667701842482 57.68713623911849 -20 57 C-24.804805761549062 63.96213353928829 -29.09367653369543 71.1714023487538 -33.3125 78.5 C-34.55723565772155 80.65703426924227 -35.80325687353945 82.8133273902954 -37.05078125 84.96875 C-37.59387939453126 85.91169921875 -38.136977539062514 86.8546484375 -38.696533203125 87.826171875 C-40 90 -40 90 -41 91 C-41.105631953901025 92.74879568125024 -41.184463648574194 94.49924318333865 -41.25 96.25 C-41.584923598741 100.34351065127868 -41.800421751299496 101.73029966391823 -44.3125 105.125 C-47 107 -47 107 -48.949462890625 107.275390625 C-52.13241782206529 108.40016860291578 -52.87414404001606 110.575800090408 -54.49609375 113.46875 C-55.13740234375001 114.59796875 -55.778710937499994 115.72718750000001 -56.439453125 116.890625 C-57.10575438244004 118.09359183774032 -57.77176827025514 119.29671788745114 -58.4375 120.5 C-59.098430507670855 121.6725402782497 -59.76052875140252 122.8444231467428 -60.423828125 124.015625 C-62.296376517698604 127.33625244061295 -64.15138132527716 130.66600361474977 -66 134 C-66.52352050781249 134.941015625 -67.04704101562501 135.88203125 -67.58642578125 136.8515625 C-68.72591031699395 138.90014618102748 -69.86387695966516 140.94955086793007 -71 143 C-74.97243168331875 141.67585610556043 -77.13488573996065 140.01204319645163 -80 137 C-77.77646448864635 133.24623200995154 -75.55274432659215 129.4925734875058 -73.328857421875 125.739013671875 C-72.57327352077516 124.46365269570842 -71.81773895553022 123.18826248925598 -71.062255859375 121.912841796875 C-69.97262519824085 120.0733268837804 -68.88281367258108 118.23391922717849 -67.79296875 116.39453125 C-67.13836669921875 115.28956298828126 -66.4837646484375 114.1845947265625 -65.809326171875 113.046142578125 C-64.6564218792252 111.10513773945391 -63.479740799322684 109.1779228204108 -62.2724609375 107.270263671875 C-60.68434411499666 104.4368219350257 -60.814675296407046 102.70820343560325 -61.0625 99.5 C-61.151526543605996 95.82518211670791 -61.140468795427864 94.27531883903862 -59.4375 90.9375 C-57 89 -57 89 -53.78125 88.5859375 C-49.88301767233526 87.53182624566337 -48.60353968959055 85.3806163317415 -46.53515625 82.01171875 C-45.356574738010295 79.91533045886477 -44.19997166914163 77.80647533008599 -43.0625 75.6875 C-41.83378410040365 73.49974677293724 -40.604620709447715 71.31224480919299 -39.375 69.125 C-38.24863484950839 67.08408615430837 -37.12350553638913 65.04248943387249 -36 63 C-34.54744021791237 60.37756422575198 -33.07038703425849 57.779180840131744 -31.5625 55.1875 C-31.02753906250001 54.232304687500005 -30.492578125000023 53.27710937500001 -29.94140625 52.29296875 C-27.37478508086201 49.26156708745674 -24.667861434867348 48.41544988258305 -21 47 C-18.083042284431144 45.1048337346989 -16.432696629121608 43.18263322612009 -15 40 C-14.343415703487949 34.15387443682559 -14.318549121643628 28.260868647542196 -15.52734375 22.4765625 C-16.44277957450163 17.67998140302464 -16.56932428562493 14.183855462416176 -14.42578125 9.7265625 C-13.728398437500005 8.703046874999998 -13.031015625000009 7.679531249999997 -12.3125 6.625 C-11.628007812500016 5.586015625000002 -10.943515625000032 4.547031250000003 -10.23828125 3.4765625 C-7.004920448164967 -0.10101297707399226 -4.626881833533844 0 0 0 Z " fill="#768185" transform="translate(309,39)"/>
<path d="M0 0 C3.7258695935103106 2.5092591139967553 4.742113764780697 4.165662180172774 6.0625 8.4375 C5.984549134426629 12.880699337682941 4.87270175830281 14.661454713323735 2 18 C-0.991105660859489 20.122720146416427 -3.384376189202726 20.200867989488728 -7 20 C-7.244921874999989 20.6844921875 -7.489843749999977 21.368984374999997 -7.7421875 22.07421875 C-9.229407335109784 25.53362140992928 -11.113549919789307 28.642461187087463 -13.125 31.8125 C-13.549504394531255 32.48176513671875 -13.974008789062509 33.1510302734375 -14.411376953125 33.840576171875 C-15.379127328613777 35.357896479276846 -16.35013454863713 36.87314262411394 -17.32373046875 38.38671875 C-18.530256021703735 40.26767556893634 -19.728854142991338 42.15372593830887 -20.92236328125 44.04296875 C-22.992036853418085 47.311860183822006 -25.087168885702738 50.563238627094194 -27.1875 53.8125 C-27.8521728515625 54.86864501953124 -28.516845703125 55.9247900390625 -29.20166015625 57.012939453125 C-34.17740213058093 64.62111705604099 -37.25651046602121 66.96994902635458 -46.04296875 68.94921875 C-47.42293997618464 69.20380189957994 -48.80451042102399 69.4498595371337 -50.1875 69.6875 C-50.88552734375 69.81705078125 -51.5835546875 69.9466015625 -52.302734375 70.080078125 C-55.61205423106762 70.67518892689989 -58.62445624967236 71 -62 71 C-62.278356933593756 71.73484619140623 -62.55671386718751 72.4696923828125 -62.843505859375 73.226806640625 C-63.90438851704101 75.77073024383975 -65.08484623051206 78.01370361945965 -66.50390625 80.37109375 C-66.99342773437499 81.18674804687498 -67.48294921875001 82.00240234375002 -67.9873046875 82.8427734375 C-68.24721191406249 83.2709033203125 -68.24721191406249 83.2709033203125 -69.5625 85.4375 C-70.09391601562498 86.31825195312501 -70.62533203125 87.19900390625 -71.1728515625 88.1064453125 C-75.64819764194485 95.49197444540505 -80.26534654868834 102.77845786719132 -85 110 C-88.55925369880714 106.6653028527358 -90.77459625801237 102.72663256597073 -93.25 98.5625 C-93.721796875 97.79873046875 -94.19359374999999 97.03496093749999 -94.6796875 96.248046875 C-95.120546875 95.50748046875 -95.56140625 94.7669140625 -96.015625 94.00390625 C-96.420712890625 93.33174072265626 -96.82580078125 92.6595751953125 -97.2431640625 91.967041015625 C-98.18889835561293 89.50904708026667 -97.94224282617793 88.43001090591301 -97 86 C-95.0625 83.25 -95.0625 83.25 -93 81 C-92.34 81 -91.68 81 -91 81 C-89.49218749999997 82.96875000000003 -89.49218749999997 82.96875000000003 -87.875 85.5 C-87.6055859375 85.91765625 -87.6055859375 85.91765625 -86.2421875 88.03125 C-85.83226562499999 88.6809375 -85.42234375000001 89.330625 -85 90 C-83.79634253867317 88.1549916863485 -82.59435150934596 86.30893294652407 -81.39453125 84.46142578125 C-80.37739998132366 82.89748840315997 -79.35653116656215 81.33597575316372 -78.33203125 79.77685546875 C-75.63621744196061 75.64781328386616 -73.2179310091166 71.5346143139833 -71 67.125 C-68.82541694161591 63.48426745749293 -67.13534610620539 62.25265620430966 -63.0625 61.0625 C-59.782935992396574 60.389538849328986 -56.521706084682705 59.94002892325929 -53.19921875 59.5234375 C-43.215946471291886 58.042239832535884 -43.215946471291886 58.042239832535884 -39.83984375 55.1484375 C-37.985083278977186 52.52634113671006 -36.50564780240646 49.83770326994723 -35 47 C-33.828736602996486 45.081452911509984 -32.625204626237576 43.185533052501 -31.4189453125 41.288818359375 C-30.12112679866047 39.24389715011577 -28.846010916494663 37.18618879623361 -27.57421875 35.125 C-25.8807876530783 32.39386730660027 -24.15602929380543 29.68772863977547 -22.39453125 27 C-21.981225585937523 26.368037109374995 -21.56791992187499 25.736074218750005 -21.14208984375 25.0849609375 C-20.35926080368904 23.892471463422538 -19.572057475136717 22.70283805851342 -18.77978515625 21.5166015625 C-15.990964515990527 17.25856729745456 -14.874945279469728 14.68823872715842 -15.25 9.625 C-14.993690413822776 5.908511000430465 -14.340453672049762 3.854353617150018 -11.7578125 1.109375 C-8.092739883527827 -1.2036930512846595 -4.109147825418177 -0.8906527306325103 0 0 Z " fill="#3896B5" transform="translate(284,58)"/>
<path d="M0 0 C3.960000000000008 0 7.9199999999999875 0 12 0 C12 7.589999999999975 12 15.180000000000007 12 23 C12.659999999999997 23 13.319999999999993 23 14 23 C14.254912109374999 22.429267578125007 14.509824218749998 21.858535156250014 14.7724609375 21.2705078125 C18.863051036138046 13.704380541749458 28.08229119027689 3.227935285034448 36.2177734375 0.1650390625 C40.27047202598615 -0.5044052995662582 44.05457869155174 -0.027585614097461075 48 1 C43.701406508526134 6.20356054231047 39.101078127589375 10.955169568326824 34.26953125 15.66796875 C32.30380709151217 17.687826448136377 30.622081513520072 19.701610884751688 29 22 C30.445765870529925 25.179246342160354 32.224663506951345 27.679111881649646 34.4375 30.375 C37.98740027927616 34.748634045738015 41.509691944352085 39.141254718821415 45 43.5625 C45.492985839843755 44.182377929687505 45.98597167968751 44.80225585937501 46.493896484375 45.44091796875 C50 49.88475077890223 50 49.88475077890223 50 51 C44.97066993189023 51.85518972818062 39.927135270365 52.60250894475831 35 51 C30.754716583901654 47.78784468173535 28.030528015933413 43.157332041733014 25.2021484375 38.72509765625 C23.409508280927582 36.152637187862354 21.291319870596084 34.13231368740526 19 32 C16.541175861667284 33.63921609222183 15.458745674499937 34.47376162992231 14 37 C13.25050774632686 41.6605750703759 13.070190924122187 46.284446097610214 13 51 C8.710000000000008 51 4.4199999999999875 51 0 51 C0 34.170000000000016 0 17.339999999999975 0 0 Z " fill="#132A47" transform="translate(133,304)"/>
<path d="M0 0 C13.200000000000003 0 26.400000000000006 0 40 0 C40 2.9700000000000273 40 5.939999999999998 40 9 C30.75999999999999 9 21.519999999999996 9 12 9 C12 12.629999999999995 12 16.25999999999999 12 20 C20.25 20 28.5 20 37 20 C37 22.970000000000027 37 25.939999999999998 37 29 C28.75 29 20.5 29 12 29 C12 32.629999999999995 12 36.25999999999999 12 40 C21.569999999999993 40 31.14 40 41 40 C41 43.30000000000001 41 46.60000000000002 41 50 C27.47 50 13.939999999999998 50 0 50 C0 33.5 0 17 0 0 Z " fill="#102744" transform="translate(82,305)"/>
<path d="M0 0 C14.850000000000023 0 29.69999999999999 0 45 0 C45 9 45 9 43.27734375 11.56640625 C42.50519531250001 12.225117187500018 41.733046875000014 12.88382812499998 40.9375 13.5625 C40.10863281249999 14.311445312499984 39.27976562499998 15.060390625000025 38.42578125 15.83203125 C37.62527343750003 16.547460937499977 36.824765625 17.26289062500001 36 18 C33.573470102281306 20.58722724193848 31.292826649752215 23.29401052821322 29 26 C28.773688964843757 26.266513671874975 28.773688964843757 26.266513671874975 27.62841796875 27.615234375 C24.41165021577052 31.404080358101226 21.20517221695684 35.20127737249561 18 39 C22.620000000000005 39.16500000000002 22.620000000000005 39.16500000000002 46 40 C46 43.30000000000001 46 46.60000000000002 46 50 C30.819999999999993 50 15.639999999999986 50 0 50 C0 39.98891428946445 0 39.98891428946445 3.55517578125 36.34912109375 C3.803884277343741 36.11620361328124 3.803884277343741 36.11620361328124 5.0625 34.9375 C6.082686833602281 33.908201449861565 7.10221890971826 32.87825352372698 8.12109375 31.84765625 C8.618510742187482 31.35926269531251 9.11592773437502 30.870869140625018 9.62841796875 30.36767578125 C11.387631133463344 28.61347283558888 13.011440724919112 26.76320766232874 14.625 24.875 C18.075466777014185 20.88853838383801 21.624252428588193 16.994462595138998 25.1796875 13.1015625 C27 11 27 11 28 9 C18.75999999999999 9 9.519999999999982 9 0 9 C0 6.029999999999973 0 3.0600000000000023 0 0 Z " fill="#112845" transform="translate(295,305)"/>
<path d="M0 0 C12.870000000000005 0 25.74000000000001 0 39 0 C41.37187499999999 4.310625000000002 43.743750000000006 8.621250000000003 46.1875 13.0625 C48.57324218750156 17.365234375002814 48.57324218750156 17.365234375002814 49.60015869140625 19.2139892578125 C52.673690132212926 24.748390535017094 55.6998413686222 30.300073846537302 58.640625 35.90625 C58.92023071289063 36.42828002929687 58.92023071289063 36.42828002929687 60.335205078125 39.070068359375 C61.37688775222412 41.01550558875681 62.39878093495412 42.971714888515535 63.397216796875 44.939697265625 C66.41871998507293 50.5066468696038 68.86671787044946 53.16806274572612 74.951416015625 55.181396484375 C77.2568807117336 56.10264819764542 78.43288417469034 57.0906859403205 80 59 C80.93555459122155 63.50077614155222 80.55888234256591 67.07495336402884 78.1875 71 C75.3738441724966 73.5724853280031 73.45347542931015 73.94866315894603 69.6875 74.375 C64.79698298992554 73.87765928711107 63.42915507790343 72.42915507790343 60 69 C58.77074551934129 66.54149103868255 59.08090471347319 65.2697663678499 59.29296875 62.546875 C59.34329178449249 56.0165835472537 56.6573378797363 51.69868830982966 53.3125 46.25 C52.73540283203124 45.27007080078124 52.15830566406251 44.29014160156251 51.563720703125 43.280517578125 C49.72935508590808 40.174470619135946 47.866037662667225 37.08710257615755 46 34 C44.140211849574825 30.880990290833154 42.28652379890667 27.758468570324737 40.436279296875 24.6337890625 C39.28576883581508 22.695444759265186 38.12855015852344 20.76106379865763 36.964111328125 18.8310546875 C36.44357177734375 17.962548828124994 35.9230322265625 17.094042968750003 35.38671875 16.19921875 C34.92483154296875 15.43440185546875 34.46294433593749 14.669584960937499 33.987060546875 13.881591796875 C33 12 33 12 33 10 C32.588990478515626 10.020947265624997 32.588990478515626 10.020947265624997 30.509033203125 10.126953125 C26.777355095793354 10.293449458486307 23.04645689490559 10.397348264057584 19.3125 10.5 C18.665712890625002 10.533515625000007 18.665712890625002 10.533515625000007 15.392578125 10.703125 C6.03226616404865 10.896619820898223 6.03226616404865 10.896619820898223 2.98974609375 8.25390625 C1.2433386062706262 5.528648146081565 0 3.273319813748067 0 0 Z " fill="#2A7595" transform="translate(110,59)"/>
<path d="M0 0 C4.620000000000001 0 9.240000000000002 0 14 0 C17.491895576438694 7.434358324030768 20.6871879859452 14.967629326175484 23.8125 22.5625 C24.22169677734375 23.550727539062507 24.630893554687503 24.538955078125014 25.052490234375 25.55712890625 C25.43348876953125 26.488315429687475 25.814487304687503 27.419501953125007 26.20703125 28.37890625 C26.552258300781247 29.220100097656257 26.8974853515625 30.061293945312514 27.253173828125 30.927978515625 C28 33 28 33 28 35 C28.659999999999997 35 29.32 35 30 35 C30.054422607421877 34.65795532226559 30.054422607421877 34.65795532226559 30.329833984375 32.927001953125 C31.11884054219712 29.480954732094233 32.35764039821724 26.429638206365098 33.72265625 23.16796875 C33.98759384155274 22.53135818481445 34.25253143310547 21.8947476196289 34.52549743652344 21.238845825195313 C35.36687104176807 19.219905785395838 36.21457591319772 17.20369644483185 37.0625 15.1875 C37.63648888566402 13.81332689065431 38.21006106969064 12.438979647025121 38.783203125 11.064453125 C40.183984840424316 7.7076064757176255 41.590454552489916 4.353177712887145 43 1 C47.28999999999999 1 51.58 1 56 1 C55.13188385971348 5.3405807014326 54.03742404826443 8.519320874450102 52.26953125 12.5234375 C51.9966276550293 13.146669006347679 51.7237240600586 13.769900512695301 51.44255065917969 14.412017822265625 C50.57053992175486 16.401771293713807 49.692006305986894 18.388549718802665 48.8125 20.375 C47.66996603231155 22.964743660093802 46.53069800207791 25.555894149650555 45.39453125 28.1484375 C45.114411926269526 28.7872283935547 44.834292602539065 29.426019287109398 44.545684814453125 30.08416748046875 C41.53604392241233 36.99166431996639 38.75423089288152 43.98752134440406 36 51 C31.379999999999995 51 26.759999999999998 51 22 51 C21.582263183593753 50.0130615234375 21.1645263671875 49.026123046875 20.734130859375 48.00927734375 C19.152562229765792 44.276060771409334 17.56501220464967 40.545410877028985 15.975830078125 36.8154296875 C15.294560486070303 35.21421387697126 14.614820600904672 33.61234617749801 13.936767578125 32.009765625 C10.00038949371352 22.7093075602765 5.917037666637928 13.572210888028394 1.252197265625 4.61181640625 C0 2 0 2 0 0 Z " fill="#152D4A" transform="translate(19,304)"/>
<path d="M0 0 C15.180000000000007 0 30.360000000000014 0 46 0 C46 2.9700000000000273 46 5.939999999999998 46 9 C40.389999999999986 9 34.78 9 29 9 C29 22.529999999999973 29 36.06 29 50 C25.039999999999992 50 21.079999999999984 50 17 50 C17 36.47000000000003 17 22.939999999999998 17 9 C11.389999999999986 9 5.780000000000001 9 0 9 C0 6.029999999999973 0 3.0600000000000023 0 0 Z " fill="#0E2643" transform="translate(184,305)"/>
<path d="M0 0 C4.4072946901173395 2.0468334890432516 7.130355708797424 4.128770120458682 9.8359375 8.28125 C10.825838718522164 14.09691965881757 10.644014819755796 19.545380202006015 8.1484375 24.90625 C4.312003016956851 28.846371901503744 0.5726110078898046 31.165471766140683 -4.9140625 31.53125 C-9.659976222526495 31.445428775361165 -13.155918661472356 30.26768417540842 -16.609375 26.8515625 C-20.65848626510646 22.200868989792014 -21.522843325409866 18.532373556559946 -21.4453125 12.5625 C-20.855868613078883 7.781455139417631 -18.015854534862484 5.031638221188359 -14.5390625 1.96875 C-9.936252264932989 -1.3016677986002492 -5.356437663960548 -1.7790334479579997 0 0 Z " fill="#F9F9FA" transform="translate(266.1640625,314.71875)"/>
<path d="M0 0 C3.9344083870899738 5.036936073235722 6.97422555922202 10.613767007291528 10.1875 16.125 C10.514599609375011 16.67994140625001 10.514599609375011 16.67994140625001 12.169921875 19.48828125 C12.788027343750002 20.5466015625 13.406132812500005 21.604921875000002 14.04296875 22.6953125 C14.610397949218736 23.664848632812493 15.177827148437501 24.634384765624986 15.762451171875 25.63330078125 C17 28 17 28 17 30 C17.43312499999999 29.95875000000001 17.43312499999999 29.95875000000001 19.625 29.75 C23.79694918537703 30.059033272990888 25.754309604350283 31.43364015227695 29 34 C30.60086626929234 37.20173253858465 30.4991708923871 40.52577058898578 30 44 C28.20636089118352 46.81003460381248 26.98119064653008 48.50940467673496 24 50 C16.910411622276058 50.58111380145277 16.910411622276058 50.58111380145277 13.0625 48.125 C11 46 11 46 10 44 C10.109702805645185 42.49880371222363 10.237442667326718 40.99890059050887 10.375 39.5 C10.440284125924933 33.82028104452979 8.364145667069323 30.912886304040256 4.953125 26.53125 C1.4884888794904043 22.041081587819548 -1.4627303316944449 17.07453933661111 -4 12 C-3.4765625 9.6875 -3.4765625 9.6875 -2.625 7 C-2.3491406249999898 6.113124999999997 -2.073281250000008 5.226249999999993 -1.7890625 4.3125 C-1 2 -1 2 0 0 Z " fill="#758084" transform="translate(177,191)"/>
<path d="M0 0 C2.4387370714376857 2.4387370714376857 3.4904103006567766 4.827600066497254 5 7.9375 C8.411481118706376 14.911544780122 12.024836951856415 21.76869448148385 15.7109375 28.601318359375 C16.123437499999994 29.374836425781254 16.535937500000003 30.148354492187508 16.9609375 30.9453125 C17.3300927734375 31.6312548828125 17.699248046875 32.317197265625 18.07958984375 33.02392578125 C19.001491188712208 35.00320150701235 19.545482007936414 36.8691862940872 20 39 C18.879261378843694 39.839055652202575 17.75325452501842 40.67107830814973 16.625 41.5 C15.998515624999996 41.9640625 15.372031249999992 42.428124999999994 14.7265625 42.90625 C13 44 13 44 11 44 C10.734855957031243 43.5093505859375 10.4697119140625 43.018701171874994 10.196533203125 42.51318359375 C4.049020327930677 31.16654891978169 -2.2997248078867614 19.96767264059369 -8.934326171875 8.89794921875 C-9.465178222656249 8.009946289062498 -9.996030273437498 7.1219433593749955 -10.54296875 6.20703125 C-11.017585449218757 5.417883300781256 -11.4922021484375 4.628735351562497 -11.981201171875 3.815673828125 C-13 2 -13 2 -13 1 C-10.876315559299357 0.7786582413917671 -8.750959762966474 0.5732999345066361 -6.625 0.375 C-5.441640625000005 0.25898437499999716 -4.258281249999996 0.14296874999999432 -3.0390625 0.0234375 C-2.036171875000008 0.015703125000001705 -1.0332812500000017 0.00796875000000341 0 0 Z " fill="#757F82" transform="translate(102,68)"/>
<path d="M0 0 C3.902669411612351 2.4572362962003638 5.685226543014835 3.8083576271275774 6.875 8.3125 C6.916249999999991 9.199375000000003 6.95750000000001 10.086250000000007 7 11 C7.783749999999998 11.061874999999986 8.567499999999995 11.123750000000001 9.375 11.1875 C15.384112075162278 12.534369947881203 21.240833561363075 14.775171857018023 25.125 19.6875 C26 22 26 22 26 24 C26.659999999999997 24 27.319999999999993 24 28 24 C28 24.99000000000001 28 25.97999999999999 28 27 C22.360792016124748 26.295099002015604 17.29241535503928 24.551436659837265 12.16796875 22.13671875 C6.72226299906211 19.717678932214966 1.9568908322836762 19.881984697676444 -3.94921875 20.28515625 C-7.780734365721216 19.927024828812222 -9.285558260289108 18.65575110750092 -12 16 C-13.600866269292311 12.798267461415378 -13.499170892387099 9.474229411014207 -13 6 C-9.39443173305986 0.35127638179376675 -6.642473442456236 -0.6642473442456236 0 0 Z " fill="#778186" transform="translate(133,117)"/>
<path d="M0 0 C12.870000000000005 0 25.74000000000001 0 39 0 C40.97999999999999 3.6300000000000026 42.96000000000001 7.260000000000005 45 11 C44.670000000000016 11.659999999999997 44.34 12.319999999999993 44 13 C43.77425292968749 12.291176757812508 43.548505859374984 11.582353515625002 43.31591796875 10.85205078125 C41.88866641521241 7.540013265769943 40.64556150204865 5.4793592287589235 38 3 C32.04701946530753 1.5513952202881782 26.218764035343014 1.735190540328361 20.125 1.875 C18.466144927403377 1.8769432117211196 16.80727809359236 1.874385624863713 15.1484375 1.8671875 C11.09696703438533 1.8593827919524415 7.050500833206129 1.9130902718638652 3 2 C3.6599999999999966 3.979999999999997 4.319999999999993 5.959999999999994 5 8 C13.909999999999997 8 22.819999999999993 8 32 8 C32.16499999999999 8.329999999999998 32.16499999999999 8.329999999999998 33 10 C28.438359181485055 10.232485859612638 23.87823781495237 10.374481434640487 19.3125 10.5 C18.665712890625002 10.533515625000007 18.665712890625002 10.533515625000007 15.392578125 10.703125 C6.03226616404865 10.896619820898223 6.03226616404865 10.896619820898223 2.98974609375 8.25390625 C1.2433386062706262 5.528648146081565 0 3.273319813748067 0 0 Z " fill="#206988" transform="translate(110,59)"/>
<path d="M0 0 C0.16500000000002046 0.3300000000000125 0.16500000000002046 0.3300000000000125 1 2 C0.158203125 3.9416503906249716 0.158203125 3.9416503906249716 -1.21875 6.34765625 C-1.732038574218734 7.2515307617187545 -2.245327148437525 8.155405273437509 -2.774169921875 9.086669921875 C-3.3436938476562545 10.068693847656249 -3.913217773437509 11.050717773437498 -4.5 12.0625 C-5.0779028320312705 13.072238769531253 -5.655805664062484 14.081977539062507 -6.251220703125 15.122314453125 C-11.43151979371001 24.126874880618743 -16.765519059123392 33.039442065089474 -22.1484375 41.924072265625 C-22.753007812499987 42.92237060546876 -23.357578125000003 43.920668945312514 -23.98046875 44.94921875 C-24.515671386718736 45.82924560546874 -25.0508740234375 46.709272460937484 -25.602294921875 47.615966796875 C-26.82985024322781 49.7097794978375 -27.947205361329225 51.814255127237516 -29 54 C-29.659999999999997 54 -30.319999999999993 54 -31 54 C-31.532517655499618 52.086546729391216 -32.05059483165397 50.169070496579764 -32.5625 48.25 C-32.8525390625 47.18265625000001 -33.142578125 46.115312500000016 -33.44140625 45.015625 C-33.97804717313798 42.118514561800566 -34.102759730826534 40.68498021418631 -33 38 C-30.9375 35.75 -30.9375 35.75 -29 34 C-29.164999999999992 34.86625000000001 -29.330000000000013 35.732500000000016 -29.5 36.625 C-29.972185479600654 39.812251987304364 -30.07655118416045 42.7848502652613 -30 46 C-29.340000000000003 46 -28.680000000000007 46 -28 46 C-24.89491586786744 42.68791025905858 -23.00746449321656 39.15927630474323 -21.0703125 35.1171875 C-19.28996897923139 31.59548608300517 -17.132356253625176 28.316206213831833 -15 25 C-12.106666666666683 20.45333333333332 -12.106666666666683 20.45333333333332 -11.5 17.875 C-11 16 -11 16 -9.60546875 14.64453125 C-7.822902837631091 12.818593904240146 -6.9047435053134905 11.109977718073168 -5.8125 8.8125 C-5.468320312499998 8.097070312499994 -5.1241406249999955 7.381640624999989 -4.76953125 6.64453125 C-4.642558593749982 6.373183593750014 -4.642558593749982 6.373183593750014 -4 5 C-3.339999999999975 5 -2.680000000000007 5 -2 5 C-1.3400000000000318 3.3499999999999943 -0.6800000000000068 1.6999999999999886 0 0 Z " fill="#3184A2" transform="translate(265,170)"/>
<path d="M0 0 C-2.7846900176913323 1.8564600117942405 -4.268141596361403 2.451578146950311 -7.4375 3.125 C-8.199335937499995 3.2925781250000057 -8.961171874999991 3.4601562500000114 -9.74609375 3.6328125 C-12 4 -12 4 -16 4 C-16.278356933593756 4.7348461914062625 -16.55671386718751 5.469692382812497 -16.843505859375 6.226806640625 C-17.904388517041014 8.77073024383975 -19.084846230512085 11.013703619459676 -20.50390625 13.37109375 C-20.74866699218751 13.778920898437491 -20.74866699218751 13.778920898437491 -21.9873046875 15.8427734375 C-22.507119140625008 16.699033203124998 -23.026933593750016 17.555292968749995 -23.5625 18.4375 C-24.093916015624984 19.318251953125014 -24.625332031249997 20.19900390625 -25.1728515625 21.1064453125 C-29.64819764194482 28.49197444540505 -34.26534654868834 35.77845786719132 -39 43 C-42.55925369880714 39.665302852735806 -44.774596258012366 35.72663256597073 -47.25 31.5625 C-47.721796874999995 30.798730468749994 -48.19359374999999 30.03496093749999 -48.6796875 29.248046875 C-48.9001171875 28.877763671875016 -48.9001171875 28.877763671875016 -50.015625 27.00390625 C-50.420712890625 26.331740722656264 -50.825800781249995 25.6595751953125 -51.2431640625 24.967041015625 C-52.191225557812146 22.502998606679853 -52.04231317566152 21.40791903607243 -51 19 C-50.00999999999999 18.340000000000003 -49.02000000000001 17.680000000000007 -48 17 C-48.25394531250001 17.82886718750001 -48.50789062499999 18.65773437499999 -48.76953125 19.51171875 C-49.08883761829401 24.3446100531618 -47.25738199760201 26.851403687906696 -44.6875 30.8125 C-44.27048828125001 31.49248046874999 -43.85347656249999 32.172460937500006 -43.423828125 32.873046875 C-40.3183466279913 37.840826686004334 -40.3183466279913 37.840826686004334 -38 39 C-37.7525 38.34 -37.504999999999995 37.68000000000001 -37.25 37 C-35.681829552521975 33.236390926052735 -33.85494954124317 29.628857597674738 -32 26 C-31.340000000000003 26 -30.680000000000007 26 -30 26 C-29.731875000000002 25.298749999999984 -29.463750000000005 24.597499999999997 -29.1875 23.875 C-27.931855096875694 20.83501760296221 -26.49764877048068 17.927222596848594 -25 15 C-24.340000000000003 15 -23.680000000000007 15 -23 15 C-22.340000000000003 12.689999999999998 -21.680000000000007 10.379999999999995 -21 8 C-20.340000000000003 8 -19.680000000000007 8 -19 8 C-18.789882812499997 7.21238281250001 -18.579765624999993 6.424765624999992 -18.36328125 5.61328125 C-17 3 -17 3 -14.35546875 1.85546875 C-13.31003906250001 1.6350390624999989 -12.264609374999992 1.4146093749999977 -11.1875 1.1875 C-10.149804687499994 0.9541796875000017 -9.112109374999989 0.7208593750000034 -8.04296875 0.48046875 C-5.293251417705051 0.046302855427114764 -2.775955149785773 -0.09749195535292188 0 0 Z " fill="#2D7694" transform="translate(238,125)"/>
<path d="M0 0 C12.870000000000005 0 25.74000000000001 0 39 0 C40.31999999999999 2.3100000000000023 41.64 4.619999999999997 43 7 C42.67 7.989999999999995 42.34 8.980000000000004 42 10 C39 4.249999999999986 39 4.249999999999986 39 2 C27.450000000000003 2 15.900000000000006 2 4 2 C4.659999999999997 3.6499999999999986 5.319999999999993 5.299999999999997 6 7 C5.670000000000002 7.989999999999995 5.340000000000003 8.980000000000004 5 10 C4.161215449413618 8.711866583028055 3.329132168063623 7.419367440143773 2.5 6.125 C2.035937500000003 5.405703125000002 1.5718749999999986 4.686406249999997 1.09375 3.9453125 C0 2 0 2 0 0 Z " fill="#143555" transform="translate(59,59)"/>
<path d="M0 0 C2.0072092289766204 0.2867441755680886 4.008594399940193 0.6186670127545142 6 1 C6.625 2.8125 6.625 2.8125 7 5 C6.6699999999999875 5.4950000000000045 6.6699999999999875 5.4950000000000045 5 8 C2.5 8.3125 2.5 8.3125 0 8 C-0.6599999999999966 7.340000000000003 -1.3199999999999932 6.680000000000007 -2 6 C-1.444444444444457 1.444444444444457 -1.444444444444457 1.444444444444457 0 0 Z " fill="#EFF2F4" transform="translate(134,173)"/>
<path d="M0 0 C2.9345326064270694 0.36681657580338367 3.864372457774749 0.8643724577747349 6 3 C5.633183424196602 5.934532606427084 5.135627542225251 6.864372457774735 3 9 C0.06546739357293063 8.633183424196616 -0.8643724577747491 8.13562754222525 -3 6 C-2.633183424196602 3.0654673935729164 -2.135627542225251 2.135627542225265 0 0 Z " fill="#E8EEF2" transform="translate(131,83)"/>
<path d="M0 0 C0.761513671875008 0.08733398437499318 1.523027343750016 0.17466796875000057 2.3076171875 0.2646484375 C1.8744921875000102 0.7493359375000068 1.8744921875000102 0.7493359375000068 -0.3173828125 3.2021484375 C-4.832590698345257 8.473440662720293 -8.585420821149796 14.197250467948521 -11.9423828125 20.2646484375 C-13.6923828125 23.2646484375 -13.6923828125 23.2646484375 -15.6923828125 24.2646484375 C-14.629338201089979 18.95551732664711 -11.656859281035509 14.629258434010382 -8.9423828125 10.0146484375 C-8.416445312500002 9.078789062499993 -7.8905078125000045 8.142929687499986 -7.3486328125 7.1787109375 C-6.827851562500001 6.294414062499996 -6.307070312500002 5.410117187500006 -5.7705078125 4.4990234375 C-5.300322265624999 3.686591796875007 -4.830136718749998 2.8741601562499994 -4.345703125 2.037109375 C-2.6923828125 0.2646484375 -2.6923828125 0.2646484375 0 0 Z " fill="#2A7797" transform="translate(218.6923828125,120.7353515625)"/>
<path d="M0 0 C2.5625 0.1875 2.5625 0.1875 4.5625 2.1875 C4.006944444444457 6.743055555555543 4.006944444444457 6.743055555555543 2.5625 8.1875 C0.896328848928249 8.228138320757836 -0.7713809484841931 8.230221001320928 -2.4375 8.1875 C-2.8181322053169 5.861414300841176 -3.1501994470795864 3.526947359494798 -3.4375 1.1875 C-2.4375 0.1875 -2.4375 0.1875 0 0 Z " fill="#F2F3F4" transform="translate(129.4375,122.8125)"/>
<path d="M0 0 C2.5625 0.1875 2.5625 0.1875 4.5625 2.1875 C4.1875 4.8125 4.1875 4.8125 3.5625 7.1875 C1.1875 7.8125 1.1875 7.8125 -1.4375 8.1875 C-3.4375 6.1875 -3.4375 6.1875 -3.625 3.625 C-3.37291260677884 0.3478638881248912 -3.277136111875109 0.25208739322116 0 0 Z " fill="#F3F7F8" transform="translate(179.4375,118.8125)"/>
<path d="M0 0 C1.8046875 1.535156250000007 1.8046875 1.535156250000007 3 3 C0 3 0 3 -2 2 C-5.465009385462167 1.6233685450584616 -7.3634800306998045 1.6147379133182937 -10.375 3.4375 C-12.47669746862266 6.751715238981859 -12.242761531990084 9.044400250649716 -11.9453125 12.87890625 C-12 15 -12 15 -14 18 C-14.660000000000025 17.67 -15.319999999999993 17.340000000000003 -16 17 C-15.83499999999998 16.484375 -15.670000000000016 15.96875 -15.5 15.4375 C-15 13 -15 13 -15.25 9.625 C-14.993604796590716 5.907269550565253 -14.33180362870604 3.859467118207043 -11.765625 1.1015625 C-8.223955136994675 -1.108063387981197 -3.974863633991106 -0.8690803538726328 0 0 Z " fill="#3DAAC8" transform="translate(284,58)"/>
<path d="M0 0 C3.125 0.375 3.125 0.375 6 1 C6.125 3.375 6.125 3.375 6 6 C5.339999999999975 6.659999999999997 4.680000000000007 7.319999999999993 4 8 C1.375 7.625 1.375 7.625 -1 7 C-1.625 4.625 -1.625 4.625 -2 2 C-1.339999999999975 1.3400000000000034 -0.6800000000000068 0.6800000000000068 0 0 Z " fill="#F1F2F3" transform="translate(296,85)"/>
<path d="M0 0 C2.625 0.375 2.625 0.375 5 1 C5.625 3.375 5.625 3.375 6 6 C5.340000000000003 6.659999999999997 4.680000000000007 7.319999999999993 4 8 C1.375 7.625 1.375 7.625 -1 7 C-1.625 4.625 -1.625 4.625 -2 2 C-1.3400000000000034 1.3400000000000034 -0.6800000000000068 0.6800000000000068 0 0 Z " fill="#F6F7F7" transform="translate(195,227)"/>
<path d="M0 0 C2.5 0.125 2.5 0.125 3.5 1.125 C3.540807829325047 3.1245836369269 3.542543562981166 5.125452539885885 3.5 7.125 C1.1875 7.8125 1.1875 7.8125 -1.5 8.125 C-3.375 6.9375 -3.375 6.9375 -4.5 5.125 C-4.081478658912687 1.567568600757852 -3.7107205678363187 0.18553602839182304 0 0 Z " fill="#EAF0F3" transform="translate(230.5,143.875)"/>
<path d="M0 0 C0.3300000000000125 0.6599999999999966 0.6599999999999966 1.3199999999999932 1 2 C0.00390625 4.1640625 0.00390625 4.1640625 -1.4375 6.625 C-1.9105859375000023 7.4422656250000045 -2.3836718750000045 8.259531249999995 -2.87109375 9.1015625 C-3.2436328125000102 9.728046875000004 -3.616171874999992 10.354531250000008 -4 11 C-1.3600000000000136 10.670000000000002 1.2800000000000011 10.340000000000003 4 10 C4.123750000000001 9.360624999999999 4.247500000000002 8.721249999999998 4.375 8.0625 C4.581250000000011 7.381874999999994 4.787499999999994 6.701250000000002 5 6 C5.659999999999997 5.670000000000002 6.319999999999993 5.340000000000003 7 5 C6.387223883222873 7.961751231089394 5.746274781959244 9.380587827061134 4 12 C1.1796875 12.73046875 1.1796875 12.73046875 -2.125 13.1875 C-3.220703125 13.3460546875 -4.31640625 13.504609375000001 -5.4453125 13.66796875 C-6.288359374999999 13.777539062499997 -7.131406249999998 13.887109374999994 -8 14 C-6.6744419028779305 10.377236851069298 -5.056530445216197 7.364946518032269 -2.875 4.1875 C-2.336171874999991 3.3973046874999966 -1.7973437500000102 2.607109374999993 -1.2421875 1.79296875 C-0.8322656249999909 1.2012890624999955 -0.42234375000001023 0.6096093750000051 0 0 Z " fill="#3695B0" transform="translate(231,98)"/>
<path d="M0 0 C5.080156039986861 3.780581239059984 7.836124501789499 7.509745458987652 11 13 C6.050000000000011 13 1.0999999999999943 13 -4 13 C-4 12.339999999999975 -4 11.680000000000007 -4 11 C-0.37000000000000455 11 3.259999999999991 11 7 11 C6.494687499999998 10.373515624999982 5.9893749999999955 9.74703125000002 5.46875 9.1015625 C4.819062500000001 8.284296874999995 4.169375000000002 7.467031249999991 3.5 6.625 C3.1751562499999864 6.218945312500011 3.1751562499999864 6.218945312500011 1.53125 4.1640625 C0 2 0 2 0 0 Z " fill="#1C273F" transform="translate(172,342)"/>
<path d="M0 0 C0.3300000000000125 0.6599999999999966 0.6599999999999966 1.3199999999999932 1 2 C-0.11450512564249493 4.247132285848295 -1.276720661297304 6.35345025013234 -2.5625 8.5 C-2.9273046874999977 9.122778320312506 -3.2921093749999955 9.745556640625011 -3.66796875 10.38720703125 C-4.7700675954926055 12.263376176002481 -5.883383323961027 14.132442284519641 -7 16 C-7.617460937499999 17.038984374999984 -8.234921874999998 18.077968749999997 -8.87109375 19.1484375 C-10.238744349600779 21.437694378948095 -11.614142267134042 23.721733878546104 -13 26 C-14 23 -14 23 -12.93603515625 20.65576171875 C-12.664284667968758 20.205959472656247 -12.664284667968758 20.205959472656247 -11.2890625 17.9296875 C-10.703828125000001 16.951289062499995 -10.118593750000002 15.972890624999991 -9.515625 14.96484375 C-8.891718749999995 13.945195312500005 -8.267812499999991 12.925546875000009 -7.625 11.875 C-7.008828125000008 10.847617187499992 -6.3926562499999875 9.820234375000013 -5.7578125 8.76171875 C-1.2070442275747553 1.2070442275747553 -1.2070442275747553 1.2070442275747553 0 0 Z " fill="#297FA0" transform="translate(251,177)"/>
<path d="M0 0 C1.9995474601141154 -0.042543562981151695 4.0004163630731 -0.04080782932503979 6 0 C7 1 7 1 7.125 3.5 C7 6 7 6 6 7 C3.5625 7.1875 3.5625 7.1875 1 7 C0.339999999999975 6.340000000000003 -0.3199999999999932 5.680000000000007 -1 5 C-0.625 2.375 -0.625 2.375 0 0 Z " fill="#F1F9FA" transform="translate(276,64)"/>
<path d="M0 0 C1 2 1 2 0.44775390625 3.906494140625 C-0.22677948060413655 7.0603239074048645 1.4200554532345109 8.837172354248963 3.0625 11.439453125 C3.4956249999999898 12.098808593749993 3.928750000000008 12.758164062499986 4.375 13.4375 C9.517374366355853 21.36143140997561 9.517374366355853 21.36143140997561 10 26 C6.440746301192888 22.665302852735806 4.225403741987634 18.726632565970732 1.75 14.5625 C1.5141015625000023 14.180615234375011 1.5141015625000023 14.180615234375011 0.3203125 12.248046875 C0.09988281249999886 11.877763671874987 0.09988281249999886 11.877763671874987 -1.015625 10.00390625 C-1.2181689453124989 9.667823486328132 -1.2181689453124989 9.667823486328132 -2.2431640625 7.967041015625 C-3.1847261587630555 5.5198907544664735 -2.963113858364295 4.41060994732058 -2 2 C-1.3400000000000034 1.3400000000000034 -0.6800000000000068 0.6800000000000068 0 0 Z " fill="#286A87" transform="translate(189,142)"/>
<path d="M0 0 C2.5625 0.1875 2.5625 0.1875 4.5625 2.1875 C4.026785714285722 5.723214285714278 4.026785714285722 5.723214285714278 2.5625 7.1875 C0.0625 7.3125 0.0625 7.3125 -2.4375 7.1875 C-3.4375 6.1875 -3.4375 6.1875 -3.5625 3.6875 C-3.3959950886590207 0.3574017731803849 -3.3151989370215063 0.25501530284779506 0 0 Z " fill="#F6F6F7" transform="translate(257.4375,132.8125)"/>
<path d="M0 0 C0.3299999999999841 0.9900000000000091 0.660000000000025 1.9799999999999898 1 3 C-0.3105631259290931 5.547166707505539 -1.661454756722378 7.900363970303118 -3.1875 10.3125 C-3.5877539062499864 10.964121093750009 -3.9880078124999727 11.61574218749999 -4.400390625 12.287109375 C-6.847969195616258 16.250044532286324 -9.395775138501278 20.13856313639843 -12 24 C-12.75 22.3125 -12.75 22.3125 -13 20 C-11.684567210682303 18.319169213649587 -10.346605936537799 16.65596135439108 -9 15 C-7.339139870895394 12.441405624053942 -5.795118252638417 9.817220804571946 -4.25 7.1875 C-3.838789062499984 6.49462890625 -3.427578125000025 5.8017578125 -3.00390625 5.087890625 C-1.9992142024640884 3.3939331029917525 -0.9991317521541419 1.6972430405182592 0 0 Z " fill="#3394B0" transform="translate(280,144)"/>
<path d="M0 0 C0.6599999999999966 0.3300000000000125 1.3199999999999932 0.6599999999999966 2 1 C0.5915732930683362 3.5881345469257155 -0.8262593837795293 6.170306971236897 -2.25 8.75 C-2.645742187499991 9.479609374999995 -3.0414843750000102 10.209218749999991 -3.44921875 10.9609375 C-5.598462046365341 14.836622132789955 -7.61364898678022 18.048593153615798 -11 21 C-8.732107062418294 13.25136579659582 -4.284324355487598 6.760101954355434 0 0 Z " fill="#2C7A99" transform="translate(247,200)"/>
<path d="M0 0 C0.3299999999999841 0.6599999999999966 0.660000000000025 1.3199999999999932 1 2 C-0.29296875 4.57421875 -0.29296875 4.57421875 -2.1875 7.6875 C-2.83203125 8.758710937500013 -3.4765625 9.829921874999997 -4.140625 10.93359375 C-4.754218750000007 11.945507812500011 -5.367812500000014 12.957421874999994 -6 14 C-6.818348080480064 15.413296541288844 -7.6322747150651935 16.82918581969838 -8.4375 18.25 C-8.953125 19.1575 -9.46875 20.064999999999998 -10 21 C-11 18 -11 18 -9.453125 14.78515625 C-8.729155195421924 13.538171494688129 -7.99429141178905 12.297462976067749 -7.25 11.0625 C-6.889062500000023 10.441816406250013 -6.528124999999989 9.821132812499997 -6.15625 9.181640625 C-4.272558977000131 5.9773183956577896 -2.308263455123779 2.9145478436530823 0 0 Z " fill="#2E8FAE" transform="translate(264,155)"/>
<path d="M0 0 C0.9900000000000091 0.6599999999999966 1.9799999999999898 1.3199999999999932 3 2 C2.5810546875 2.388007812500007 2.162109375 2.7760156250000136 1.73046875 3.17578125 C-0.3427786535815187 5.361349054678499 -1.979928286014939 7.70668826458774 -3.6875 10.1875 C-4.310117187499998 11.088554687499993 -4.9327343749999955 11.989609374999986 -5.57421875 12.91796875 C-6.044726562499989 13.605039062499998 -6.515234375000006 14.292109374999995 -7 15 C-7.659999999999997 14.669999999999987 -8.319999999999993 14.340000000000003 -9 14 C-7.689180994499566 11.85312331445374 -6.376433894917341 9.707469007941995 -5.0625 7.5625 C-4.689316406249986 6.950839843750003 -4.316132812500001 6.339179687500007 -3.931640625 5.708984375 C-1.11328125 1.11328125 -1.11328125 1.11328125 0 0 Z " fill="#276786" transform="translate(229,177)"/>
<path d="M0 0 C0 0.3300000000000125 0 0.6599999999999966 0 1 C-0.45375000000001364 1.1237500000000011 -0.45375000000001364 1.1237500000000011 -2.75 1.75 C-6.190167683484759 3.0731414167248943 -7.7652986242033535 4.103164883226583 -10 7 C-10.75 9.75 -10.75 9.75 -11 12 C-11.329999999999998 12 -11.659999999999997 12 -12 12 C-12.307887118290807 8.074439241792163 -12.308541138751764 5.6042263967222254 -10.5 2.0625 C-6.888224090086737 -0.9172151256784389 -4.58919420751991 -0.3824328506266568 0 0 Z " fill="#112D4D" transform="translate(138,168)"/>
<path d="M0 0 C0.3299999999999841 0 0.660000000000025 0 1 0 C1.9925054509877214 5.706906343179426 2.1047751226635683 11.214084892912183 2 17 C1.339999999999975 17 0.6800000000000068 17 0 17 C-0.19644383606913607 15.105072535148594 -0.3817728753730876 13.208990966021673 -0.5625 11.3125 C-0.6669140624999841 10.256757812499998 -0.771328125000025 9.201015624999997 -0.87890625 8.11328125 C-0.9927755166493171 5.185739136467419 -0.7084841468217178 2.828688556569631 0 0 Z " fill="#53BDD1" transform="translate(325,116)"/>
<path d="M0 0 C0.8456249999999983 0.6393750000000011 1.6912499999999966 1.2787500000000023 2.5625 1.9375 C5.907285649718233 4.196627300406334 8.97396991703431 4.677917593362736 13 5 C13 5.659999999999997 13 6.319999999999993 13 7 C8.724529469105647 7.342037642471553 6.403395067326699 7.21269921731772 2.5625 5.1875 C1.7168749999999875 4.465624999999989 0.8712500000000034 3.7437500000000057 0 3 C0 2.009999999999991 0 1.0200000000000102 0 0 Z " fill="#2B3E58" transform="translate(127,181)"/>
<path d="M0 0 C2.0625 2.1875 2.0625 2.1875 4 5 C3.75 7.8125 3.75 7.8125 3 10 C2.3400000000000034 10 1.6800000000000068 10 1 10 C0.6699999999999875 6.699999999999989 0.3400000000000034 3.4000000000000057 0 0 Z " fill="#2580A2" transform="translate(233,214)"/>
<path d="M0 0 C0.3300000000000125 0.6599999999999966 0.6599999999999966 1.3199999999999932 1 2 C0.00390625 3.9453125 0.00390625 3.9453125 -1.4375 6.125 C-1.9105859375000023 6.849453124999997 -2.3836718750000045 7.573906249999993 -2.87109375 8.3203125 C-3.2436328125000102 8.874609375000006 -3.616171874999992 9.428906250000011 -4 10 C-4.3300000000000125 9.340000000000003 -4.659999999999997 8.680000000000007 -5 8 C-4.2578125 6.30859375 -4.2578125 6.30859375 -3.125 4.4375 C-2.7563281250000102 3.8174609374999875 -2.387656249999992 3.1974218750000034 -2.0078125 2.55859375 C-1 1 -1 1 0 0 Z " fill="#237495" transform="translate(241,211)"/>
</svg>
